<svg width="170" height="215" viewBox="0 0 170 215" xmlns="http://www.w3.org/2000/svg">
  <rect width="170" height="215" fill="#0d1117"/>

  <text x="85" y="16" text-anchor="middle"
    font-family="'Cascadia Code','Fira Code','Courier New',monospace"
    font-size="8.5" letter-spacing="2" fill="rgba(88,166,255,0.55)">LANGUAGES</text>

  <!-- Globe -->
  <circle cx="85" cy="60" r="36" fill="#161b22" stroke="#30363d" stroke-width="1.2"/>
  <ellipse cx="85" cy="60" rx="15" ry="36" fill="none" stroke="#30363d" stroke-width="0.8"/>
  <line x1="49" y1="60" x2="121" y2="60" stroke="#30363d" stroke-width="0.8"/>
  <line x1="54" y1="43" x2="116" y2="43" stroke="#30363d" stroke-width="0.6"/>
  <line x1="54" y1="77" x2="116" y2="77" stroke="#30363d" stroke-width="0.6"/>
  <!-- Highlight arc -->
  <path d="M 85 24 Q 100 42 100 60 Q 100 78 85 96"
    fill="none" stroke="#388bfd" stroke-width="1.5" opacity="0.5"/>
  <circle cx="85" cy="60" r="2.5" fill="#388bfd"/>

  <!-- PT-BR card -->
  <rect x="6" y="108" width="158" height="46" rx="4" fill="#161b22" stroke="#30363d" stroke-width="1"/>
  <rect x="6" y="108" width="4" height="46" rx="2" fill="#009c3b"/>
  <text x="20" y="126" font-family="'Cascadia Code','Fira Code','Courier New',monospace" font-size="10.5" fill="#e6edf3">Portugu&#xEA;s</text>
  <text x="20" y="139" font-family="'Cascadia Code','Fira Code','Courier New',monospace" font-size="7.5" fill="#8b949e">Nativo / C2</text>
  <rect x="20" y="145" width="136" height="3" rx="1.5" fill="#21262d"/>
  <rect x="20" y="145" width="136" height="3" rx="1.5" fill="#009c3b" opacity="0.75"/>

  <!-- English card -->
  <rect x="6" y="162" width="158" height="46" rx="4" fill="#161b22" stroke="#30363d" stroke-width="1"/>
  <rect x="6" y="162" width="4" height="46" rx="2" fill="#388bfd"/>
  <text x="20" y="180" font-family="'Cascadia Code','Fira Code','Courier New',monospace" font-size="10.5" fill="#e6edf3">English</text>
  <text x="20" y="193" font-family="'Cascadia Code','Fira Code','Courier New',monospace" font-size="7.5" fill="#8b949e">Profissional / B2</text>
  <rect x="20" y="199" width="136" height="3" rx="1.5" fill="#21262d"/>
  <rect x="20" y="199" width="104" height="3" rx="1.5" fill="#388bfd" opacity="0.75"/>
</svg>
